<svg xmlns="http://www.w3.org/2000/svg" viewBox="0 0 1 1">
                            <path stroke-width="0.09" d="M 0.192 0.241 C 0.212 0.213 0.245 0.236 0.224 0.266 C 0.027 0.571 0.314 0.802 0.603 0.551 C 0.854 0.324 0.491 0.05 0.391 0.362 C 0.285 0.683 0.524 0.787 0.807 0.789 L 0.71 0.654 C 0.697 0.628 0.729 0.607 0.748 0.631 L 0.867 0.793 C 0.885 0.813 0.889 0.825 0.868 0.845 L 0.723 0.986 C 0.699 1.001 0.675 0.973 0.699 0.948 L 0.804 0.834 C 0.187 0.821 0.326 0.417 0.364 0.317 C 0.56 -0.027 0.875 0.353 0.637 0.571 C 0.388 0.836 -0.072 0.66 0.192 0.241">
                            </path>
                        </svg>