<svg width="104" height="125" viewBox="0 0 104 125" fill="none" xmlns="http://www.w3.org/2000/svg">
<path d="M8.76406 113.918C8.76406 114.93 8.41771 115.709 7.725 116.256C7.03685 116.798 6.05019 117.069 4.76504 117.069H3.58926V121H2.42715V111.006H5.01797C7.51536 111.006 8.76406 111.977 8.76406 113.918ZM3.58926 116.071H4.63515C5.6651 116.071 6.41022 115.905 6.87051 115.572C7.33079 115.24 7.56094 114.706 7.56094 113.973C7.56094 113.312 7.34446 112.82 6.91152 112.496C6.47858 112.173 5.8041 112.011 4.88808 112.011H3.58926V116.071ZM15.7898 113.371C16.1224 113.371 16.4209 113.398 16.6853 113.453L16.528 114.506C16.2181 114.438 15.9447 114.403 15.7077 114.403C15.1016 114.403 14.5821 114.649 14.1491 115.142C13.7208 115.634 13.5066 116.247 13.5066 116.98V121H12.3718V113.508H13.3083L13.4382 114.896H13.4929C13.7709 114.408 14.1058 114.032 14.4978 113.768C14.8897 113.503 15.3204 113.371 15.7898 113.371ZM22.9317 121.137C21.8243 121.137 20.9493 120.799 20.3067 120.125C19.6687 119.451 19.3496 118.514 19.3496 117.315C19.3496 116.108 19.6459 115.148 20.2383 114.438C20.8353 113.727 21.6351 113.371 22.6377 113.371C23.5765 113.371 24.3194 113.681 24.8662 114.301C25.4131 114.916 25.6866 115.729 25.6866 116.741V117.459H20.5254C20.5482 118.339 20.7692 119.006 21.1885 119.462C21.6123 119.918 22.2071 120.146 22.9727 120.146C23.7793 120.146 24.5769 119.977 25.3653 119.64V120.651C24.9642 120.825 24.5837 120.948 24.2237 121.021C23.8682 121.098 23.4375 121.137 22.9317 121.137ZM22.6241 114.321C22.0225 114.321 21.5417 114.517 21.1817 114.909C20.8262 115.301 20.6166 115.843 20.5528 116.536H24.4698C24.4698 115.821 24.3103 115.274 23.9912 114.896C23.6722 114.513 23.2165 114.321 22.6241 114.321ZM34.141 118.956C34.141 119.653 33.8812 120.191 33.3617 120.569C32.8421 120.948 32.113 121.137 31.1742 121.137C30.1807 121.137 29.4059 120.979 28.85 120.665V119.612C29.21 119.795 29.5951 119.938 30.0052 120.043C30.4199 120.148 30.8187 120.2 31.2015 120.2C31.794 120.2 32.2497 120.107 32.5687 119.92C32.8877 119.729 33.0472 119.439 33.0472 119.052C33.0472 118.76 32.9196 118.512 32.6644 118.307C32.4138 118.097 31.9216 117.851 31.1878 117.568C30.4906 117.309 29.9938 117.083 29.6976 116.892C29.4059 116.696 29.1872 116.475 29.0414 116.229C28.9001 115.982 28.8295 115.688 28.8295 115.347C28.8295 114.736 29.0778 114.255 29.5746 113.904C30.0713 113.549 30.7526 113.371 31.6185 113.371C32.4252 113.371 33.2136 113.535 33.9837 113.863L33.5804 114.786C32.8285 114.476 32.1472 114.321 31.5365 114.321C30.9987 114.321 30.5931 114.406 30.3197 114.574C30.0462 114.743 29.9095 114.975 29.9095 115.271C29.9095 115.472 29.9597 115.643 30.0599 115.784C30.1647 115.925 30.3311 116.06 30.5589 116.188C30.7868 116.315 31.2243 116.5 31.8714 116.741C32.7601 117.065 33.3594 117.391 33.6693 117.719C33.9837 118.047 34.141 118.459 34.141 118.956ZM40.6677 121.137C39.583 121.137 38.7422 120.804 38.1452 120.139C37.5527 119.469 37.2565 118.523 37.2565 117.302C37.2565 116.049 37.5573 115.08 38.1589 114.396C38.765 113.713 39.6263 113.371 40.7429 113.371C41.1029 113.371 41.4629 113.41 41.8229 113.487C42.183 113.565 42.4655 113.656 42.6706 113.761L42.322 114.725C42.0713 114.624 41.7979 114.542 41.5016 114.479C41.2054 114.41 40.9434 114.376 40.7155 114.376C39.1934 114.376 38.4323 115.347 38.4323 117.288C38.4323 118.209 38.6169 118.915 38.986 119.407C39.3597 119.899 39.9111 120.146 40.6403 120.146C41.2647 120.146 41.905 120.011 42.5612 119.742V120.747C42.0599 121.007 41.4287 121.137 40.6677 121.137ZM51.1523 121V116.153C51.1523 115.543 51.0133 115.087 50.7354 114.786C50.4574 114.485 50.0221 114.335 49.4297 114.335C48.6413 114.335 48.0648 114.549 47.7002 114.978C47.3402 115.406 47.1602 116.108 47.1602 117.083V121H46.0254V110.363H47.1602V113.583C47.1602 113.97 47.1419 114.292 47.1055 114.547H47.1738C47.3971 114.187 47.7139 113.904 48.124 113.699C48.5387 113.49 49.0104 113.385 49.5391 113.385C50.4551 113.385 51.141 113.604 51.5967 114.041C52.057 114.474 52.2871 115.164 52.2871 116.112V121H51.1523ZM62.7718 117.247C62.7718 118.468 62.4642 119.423 61.8489 120.111C61.2337 120.795 60.3838 121.137 59.2991 121.137C58.6292 121.137 58.0345 120.979 57.515 120.665C56.9954 120.351 56.5944 119.899 56.3118 119.312C56.0293 118.724 55.888 118.035 55.888 117.247C55.888 116.026 56.1933 115.076 56.804 114.396C57.4147 113.713 58.2624 113.371 59.347 113.371C60.3952 113.371 61.2269 113.72 61.8421 114.417C62.4619 115.114 62.7718 116.058 62.7718 117.247ZM57.0638 117.247C57.0638 118.204 57.2552 118.933 57.638 119.435C58.0208 119.936 58.5836 120.187 59.3265 120.187C60.0693 120.187 60.6321 119.938 61.015 119.441C61.4023 118.94 61.596 118.209 61.596 117.247C61.596 116.295 61.4023 115.572 61.015 115.08C60.6321 114.583 60.0648 114.335 59.3128 114.335C58.57 114.335 58.0094 114.579 57.6312 115.066C57.2529 115.554 57.0638 116.281 57.0638 117.247ZM72.9147 117.247C72.9147 118.468 72.6071 119.423 71.9918 120.111C71.3766 120.795 70.5267 121.137 69.442 121.137C68.7721 121.137 68.1774 120.979 67.6579 120.665C67.1383 120.351 66.7373 119.899 66.4547 119.312C66.1722 118.724 66.0309 118.035 66.0309 117.247C66.0309 116.026 66.3362 115.076 66.9469 114.396C67.5576 113.713 68.4052 113.371 69.4899 113.371C70.5381 113.371 71.3698 113.72 71.985 114.417C72.6048 115.114 72.9147 116.058 72.9147 117.247ZM67.2067 117.247C67.2067 118.204 67.3981 118.933 67.7809 119.435C68.1637 119.936 68.7265 120.187 69.4694 120.187C70.2122 120.187 70.775 119.938 71.1579 119.441C71.5452 118.94 71.7389 118.209 71.7389 117.247C71.7389 116.295 71.5452 115.572 71.1579 115.08C70.775 114.583 70.2077 114.335 69.4557 114.335C68.7129 114.335 68.1523 114.579 67.7741 115.066C67.3958 115.554 67.2067 116.281 67.2067 117.247ZM77.7255 121H76.5908V110.363H77.7255V121ZM86.4055 121L83.0149 112.141H82.9602C83.024 112.842 83.0559 113.676 83.0559 114.643V121H81.9827V111.006H83.7327L86.8977 119.25H86.9524L90.1448 111.006H91.8811V121H90.719V114.561C90.719 113.822 90.7509 113.02 90.8147 112.154H90.76L87.3421 121H86.4055ZM98.7428 114.896C99.7955 114.896 100.623 115.158 101.224 115.682C101.83 116.201 102.133 116.914 102.133 117.821C102.133 118.856 101.803 119.667 101.142 120.255C100.486 120.843 99.579 121.137 98.4215 121.137C97.2958 121.137 96.4368 120.957 95.8443 120.597V119.503C96.1633 119.708 96.5598 119.87 97.0338 119.988C97.5077 120.102 97.9749 120.159 98.4352 120.159C99.2372 120.159 99.8593 119.97 100.301 119.592C100.748 119.214 100.971 118.667 100.971 117.951C100.971 116.557 100.117 115.859 98.4078 115.859C97.9749 115.859 97.3961 115.925 96.6715 116.058L96.0836 115.682L96.4596 111.006H101.429V112.052H97.4303L97.1773 115.053C97.7014 114.948 98.2232 114.896 98.7428 114.896Z" fill="black"/>
<path d="M7.725 116.256L7.91069 116.491L7.91089 116.491L7.725 116.256ZM3.58926 117.069V116.769H3.28926V117.069H3.58926ZM3.58926 121V121.3H3.88926V121H3.58926ZM2.42715 121H2.12715V121.3H2.42715V121ZM2.42715 111.006V110.706H2.12715V111.006H2.42715ZM3.58926 116.071H3.28926V116.371H3.58926V116.071ZM3.58926 112.011V111.711H3.28926V112.011H3.58926ZM8.46406 113.918C8.46406 114.853 8.14862 115.539 7.53911 116.02L7.91089 116.491C8.68679 115.879 9.06406 115.006 9.06406 113.918H8.46406ZM7.53931 116.02C6.92378 116.505 6.01316 116.769 4.76504 116.769V117.369C6.08723 117.369 7.14992 117.091 7.91069 116.491L7.53931 116.02ZM4.76504 116.769H3.58926V117.369H4.76504V116.769ZM3.28926 117.069V121H3.88926V117.069H3.28926ZM3.58926 120.7H2.42715V121.3H3.58926V120.7ZM2.72715 121V111.006H2.12715V121H2.72715ZM2.42715 111.306H5.01797V110.706H2.42715V111.306ZM5.01797 111.306C6.23608 111.306 7.09447 111.544 7.64342 111.971C8.178 112.386 8.46406 113.017 8.46406 113.918H9.06406C9.06406 112.878 8.72577 112.052 8.01166 111.497C7.3119 110.953 6.29725 110.706 5.01797 110.706V111.306ZM3.58926 116.371H4.63515V115.771H3.58926V116.371ZM4.63515 116.371C5.68339 116.371 6.50765 116.205 7.04624 115.815L6.69477 115.329C6.31279 115.605 5.64681 115.771 4.63515 115.771V116.371ZM7.04624 115.815C7.60672 115.41 7.86094 114.772 7.86094 113.973H7.26094C7.26094 114.641 7.05487 115.069 6.69477 115.329L7.04624 115.815ZM7.86094 113.973C7.86094 113.241 7.6169 112.649 7.09112 112.256L6.73193 112.736C7.07203 112.991 7.26094 113.383 7.26094 113.973H7.86094ZM7.09112 112.256C6.5812 111.875 5.82821 111.711 4.88808 111.711V112.311C5.77999 112.311 6.37596 112.47 6.73193 112.736L7.09112 112.256ZM4.88808 111.711H3.58926V112.311H4.88808V111.711ZM3.28926 112.011V116.071H3.88926V112.011H3.28926ZM16.6853 113.453L16.982 113.497L17.0239 113.217L16.7461 113.159L16.6853 113.453ZM16.528 114.506L16.4634 114.799L16.7773 114.868L16.8248 114.55L16.528 114.506ZM14.1491 115.142L13.9239 114.943L13.9228 114.945L14.1491 115.142ZM13.5066 121V121.3H13.8066V121H13.5066ZM12.3718 121H12.0718V121.3H12.3718V121ZM12.3718 113.508V113.208H12.0718V113.508H12.3718ZM13.3083 113.508L13.607 113.48L13.5816 113.208H13.3083V113.508ZM13.4382 114.896L13.1395 114.923L13.165 115.196H13.4382V114.896ZM13.4929 114.896V115.196H13.6672L13.7535 115.044L13.4929 114.896ZM14.4978 113.768L14.6655 114.016L14.4978 113.768ZM15.7898 113.671C16.1065 113.671 16.3841 113.697 16.6245 113.747L16.7461 113.159C16.4578 113.1 16.1384 113.071 15.7898 113.071V113.671ZM16.3886 113.409L16.2313 114.462L16.8248 114.55L16.982 113.497L16.3886 113.409ZM16.5927 114.213C16.2682 114.141 15.9723 114.103 15.7077 114.103V114.703C15.9171 114.703 16.1681 114.734 16.4634 114.799L16.5927 114.213ZM15.7077 114.103C15.0078 114.103 14.4086 114.392 13.9239 114.943L14.3744 115.34C14.7556 114.906 15.1955 114.703 15.7077 114.703V114.103ZM13.9228 114.945C13.441 115.498 13.2066 116.184 13.2066 116.98H13.8066C13.8066 116.31 14.0005 115.769 14.3754 115.339L13.9228 114.945ZM13.2066 116.98V121H13.8066V116.98H13.2066ZM13.5066 120.7H12.3718V121.3H13.5066V120.7ZM12.6718 121V113.508H12.0718V121H12.6718ZM12.3718 113.808H13.3083V113.208H12.3718V113.808ZM13.0096 113.536L13.1395 114.923L13.7369 114.868L13.607 113.48L13.0096 113.536ZM13.4382 115.196H13.4929V114.596H13.4382V115.196ZM13.7535 115.044C14.0129 114.589 14.3184 114.25 14.6655 114.016L14.33 113.519C13.8933 113.813 13.5289 114.227 13.2323 114.747L13.7535 115.044ZM14.6655 114.016C15.0083 113.785 15.3806 113.671 15.7898 113.671V113.071C15.2601 113.071 14.7711 113.221 14.33 113.519L14.6655 114.016ZM20.3067 120.125L20.0887 120.331L20.0895 120.332L20.3067 120.125ZM20.2383 114.438L20.0086 114.245L20.0079 114.245L20.2383 114.438ZM24.8662 114.301L24.6413 114.499L24.642 114.5L24.8662 114.301ZM25.6866 117.459V117.759H25.9866V117.459H25.6866ZM20.5254 117.459V117.159H20.2176L20.2255 117.467L20.5254 117.459ZM21.1885 119.462L20.9677 119.665L20.9688 119.666L21.1885 119.462ZM25.3653 119.64H25.6653V119.185L25.2473 119.364L25.3653 119.64ZM25.3653 120.651L25.4842 120.927L25.6653 120.849V120.651H25.3653ZM24.2237 121.021L24.1641 120.726L24.1598 120.727L24.2237 121.021ZM21.1817 114.909L20.9607 114.706L20.9595 114.708L21.1817 114.909ZM20.5528 116.536L20.254 116.509L20.2239 116.836H20.5528V116.536ZM24.4698 116.536V116.836H24.7698V116.536H24.4698ZM23.9912 114.896L23.7608 115.088L23.7619 115.089L23.9912 114.896ZM22.9317 120.837C21.8896 120.837 21.0992 120.522 20.5239 119.918L20.0895 120.332C20.7993 121.077 21.7589 121.437 22.9317 121.437V120.837ZM20.5246 119.919C19.9533 119.315 19.6496 118.46 19.6496 117.315H19.0496C19.0496 118.568 19.384 119.586 20.0887 120.331L20.5246 119.919ZM19.6496 117.315C19.6496 116.156 19.9334 115.272 20.4688 114.63L20.0079 114.245C19.3583 115.025 19.0496 116.059 19.0496 117.315H19.6496ZM20.4681 114.63C21.0031 113.993 21.7157 113.671 22.6377 113.671V113.071C21.5546 113.071 20.6676 113.46 20.0086 114.245L20.4681 114.63ZM22.6377 113.671C23.5034 113.671 24.1594 113.953 24.6413 114.499L25.0912 114.102C24.4793 113.409 23.6496 113.071 22.6377 113.071V113.671ZM24.642 114.5C25.1296 115.049 25.3866 115.785 25.3866 116.741H25.9866C25.9866 115.674 25.6967 114.783 25.0905 114.101L24.642 114.5ZM25.3866 116.741V117.459H25.9866V116.741H25.3866ZM25.6866 117.159H20.5254V117.759H25.6866V117.159ZM20.2255 117.467C20.2494 118.389 20.4821 119.137 20.9677 119.665L21.4093 119.259C21.0563 118.875 20.847 118.288 20.8253 117.451L20.2255 117.467ZM20.9688 119.666C21.4621 120.197 22.1443 120.446 22.9727 120.446V119.846C22.2698 119.846 21.7626 119.639 21.4082 119.258L20.9688 119.666ZM22.9727 120.446C23.8224 120.446 24.6599 120.268 25.4833 119.915L25.2473 119.364C24.4938 119.686 23.7363 119.846 22.9727 119.846V120.446ZM25.0653 119.64V120.651H25.6653V119.64H25.0653ZM25.2463 120.376C24.8609 120.542 24.5004 120.658 24.1641 120.726L24.2832 121.315C24.667 121.237 25.0675 121.107 25.4842 120.927L25.2463 120.376ZM24.1598 120.727C23.8317 120.799 23.4237 120.837 22.9317 120.837V121.437C23.4514 121.437 23.9048 121.397 24.2876 121.314L24.1598 120.727ZM22.6241 114.021C21.9506 114.021 21.3853 114.244 20.9607 114.706L21.4026 115.112C21.6981 114.79 22.0944 114.621 22.6241 114.621V114.021ZM20.9595 114.708C20.5483 115.161 20.3219 115.771 20.254 116.509L20.8515 116.564C20.9112 115.915 21.1041 115.441 21.4039 115.111L20.9595 114.708ZM20.5528 116.836H24.4698V116.236H20.5528V116.836ZM24.7698 116.536C24.7698 115.781 24.6018 115.154 24.2206 114.702L23.7619 115.089C24.0187 115.393 24.1698 115.861 24.1698 116.536H24.7698ZM24.2217 114.703C23.8348 114.239 23.2869 114.021 22.6241 114.021V114.621C23.1461 114.621 23.5097 114.786 23.7608 115.088L24.2217 114.703ZM28.85 120.665H28.55V120.84L28.7023 120.926L28.85 120.665ZM28.85 119.612L28.9855 119.345L28.55 119.124V119.612H28.85ZM30.0052 120.043L29.931 120.334L29.9317 120.334L30.0052 120.043ZM32.5687 119.92L32.7203 120.179L32.7231 120.177L32.5687 119.92ZM32.6644 118.307L32.4719 118.537L32.4765 118.54L32.6644 118.307ZM31.1878 117.568L31.2957 117.288L31.2926 117.287L31.1878 117.568ZM29.6976 116.892L29.5303 117.141L29.5348 117.144L29.6976 116.892ZM29.0414 116.229L28.7812 116.378L28.7833 116.381L29.0414 116.229ZM29.5746 113.904L29.7477 114.149L29.7492 114.148L29.5746 113.904ZM33.9837 113.863L34.2586 113.983L34.3799 113.706L34.1013 113.587L33.9837 113.863ZM33.5804 114.786L33.4661 115.064L33.7377 115.175L33.8553 114.906L33.5804 114.786ZM30.0599 115.784L29.8152 115.958L29.819 115.963L30.0599 115.784ZM31.8714 116.741L31.7665 117.022L31.7688 117.023L31.8714 116.741ZM33.6693 117.719L33.4512 117.925L33.4527 117.926L33.6693 117.719ZM33.841 118.956C33.841 119.567 33.6197 120.01 33.1851 120.327L33.5383 120.812C34.1427 120.372 34.441 119.74 34.441 118.956H33.841ZM33.1851 120.327C32.7356 120.654 32.0775 120.837 31.1742 120.837V121.437C32.1484 121.437 32.9487 121.241 33.5383 120.812L33.1851 120.327ZM31.1742 120.837C30.2063 120.837 29.4903 120.683 28.9976 120.404L28.7023 120.926C29.3216 121.276 30.1551 121.437 31.1742 121.437V120.837ZM29.15 120.665V119.612H28.55V120.665H29.15ZM28.7144 119.88C29.0949 120.073 29.5006 120.224 29.931 120.334L30.0795 119.752C29.6895 119.653 29.3251 119.517 28.9855 119.345L28.7144 119.88ZM29.9317 120.334C30.3677 120.444 30.7912 120.5 31.2015 120.5V119.9C30.8462 119.9 30.4722 119.852 30.0787 119.752L29.9317 120.334ZM31.2015 120.5C31.8183 120.5 32.3355 120.404 32.7203 120.179L32.4171 119.661C32.1639 119.809 31.7697 119.9 31.2015 119.9V120.5ZM32.7231 120.177C33.1369 119.929 33.3472 119.539 33.3472 119.052H32.7472C32.7472 119.339 32.6385 119.528 32.4144 119.663L32.7231 120.177ZM33.3472 119.052C33.3472 118.657 33.1686 118.327 32.8523 118.073L32.4765 118.54C32.6707 118.697 32.7472 118.863 32.7472 119.052H33.3472ZM32.8569 118.077C32.5641 117.832 32.029 117.571 31.2957 117.288L31.08 117.848C31.8142 118.131 32.2635 118.362 32.4719 118.537L32.8569 118.077ZM31.2926 117.287C30.5984 117.029 30.1276 116.812 29.8604 116.64L29.5348 117.144C29.8601 117.354 30.3828 117.589 31.0831 117.849L31.2926 117.287ZM29.8649 116.643C29.602 116.466 29.418 116.276 29.2995 116.076L28.7833 116.381C28.9564 116.674 29.2099 116.925 29.5303 117.141L29.8649 116.643ZM29.3015 116.079C29.1912 115.887 29.1295 115.647 29.1295 115.347H28.5295C28.5295 115.73 28.609 116.078 28.7812 116.378L29.3015 116.079ZM29.1295 115.347C29.1295 114.833 29.3309 114.444 29.7477 114.149L29.4015 113.659C28.8248 114.067 28.5295 114.639 28.5295 115.347H29.1295ZM29.7492 114.148C30.1777 113.842 30.79 113.671 31.6185 113.671V113.071C30.7153 113.071 29.9649 113.256 29.4 113.66L29.7492 114.148ZM31.6185 113.671C32.3832 113.671 33.1317 113.826 33.8662 114.139L34.1013 113.587C33.2954 113.244 32.4671 113.071 31.6185 113.071V113.671ZM33.7089 113.743L33.3055 114.666L33.8553 114.906L34.2586 113.983L33.7089 113.743ZM33.6947 114.509C32.9179 114.189 32.197 114.021 31.5365 114.021V114.621C32.0973 114.621 32.7391 114.764 33.4661 115.064L33.6947 114.509ZM31.5365 114.021C30.9765 114.021 30.505 114.107 30.1622 114.319L30.4772 114.83C30.6812 114.704 31.021 114.621 31.5365 114.621V114.021ZM30.1622 114.319C29.8092 114.537 29.6095 114.861 29.6095 115.271H30.2095C30.2095 115.089 30.2833 114.949 30.4772 114.83L30.1622 114.319ZM29.6095 115.271C29.6095 115.524 29.6736 115.758 29.8153 115.958L30.3046 115.611C30.2458 115.528 30.2095 115.42 30.2095 115.271H29.6095ZM29.819 115.963C29.9582 116.151 30.1639 116.31 30.4124 116.449L30.7055 115.926C30.4983 115.81 30.3712 115.7 30.3008 115.605L29.819 115.963ZM30.4124 116.449C30.663 116.59 31.121 116.781 31.7665 117.022L31.9763 116.46C31.3276 116.218 30.9106 116.041 30.7055 115.926L30.4124 116.449ZM31.7688 117.023C32.6515 117.345 33.1927 117.651 33.4512 117.925L33.8874 117.513C33.5261 117.13 32.8687 116.785 31.9741 116.459L31.7688 117.023ZM33.4527 117.926C33.7084 118.193 33.841 118.529 33.841 118.956H34.441C34.441 118.39 34.2591 117.901 33.8859 117.511L33.4527 117.926ZM38.1452 120.139L37.9205 120.337L37.9219 120.339L38.1452 120.139ZM38.1589 114.396L37.9344 114.197L37.9337 114.198L38.1589 114.396ZM42.6706 113.761L42.9527 113.863L43.0427 113.614L42.8071 113.494L42.6706 113.761ZM42.322 114.725L42.2105 115.003L42.4986 115.118L42.6041 114.827L42.322 114.725ZM41.5016 114.479L41.4342 114.771L41.4385 114.772L41.5016 114.479ZM38.986 119.407L38.746 119.587L38.7471 119.589L38.986 119.407ZM42.5612 119.742H42.8612V119.295L42.4475 119.465L42.5612 119.742ZM42.5612 120.747L42.6992 121.013L42.8612 120.93V120.747H42.5612ZM40.6677 120.837C39.6485 120.837 38.8966 120.527 38.3685 119.938L37.9219 120.339C38.5878 121.081 39.5175 121.437 40.6677 121.437V120.837ZM38.3699 119.94C37.8413 119.342 37.5565 118.477 37.5565 117.302H36.9565C36.9565 118.569 37.2642 119.595 37.9205 120.337L38.3699 119.94ZM37.5565 117.302C37.5565 116.094 37.8462 115.206 38.3841 114.595L37.9337 114.198C37.2684 114.954 36.9565 116.003 36.9565 117.302H37.5565ZM38.3833 114.596C38.9201 113.99 39.6915 113.671 40.7429 113.671V113.071C39.5612 113.071 38.6099 113.436 37.9344 114.197L38.3833 114.596ZM40.7429 113.671C41.0812 113.671 41.4201 113.707 41.7598 113.781L41.886 113.194C41.5058 113.112 41.1246 113.071 40.7429 113.071V113.671ZM41.7598 113.781C42.1076 113.855 42.3618 113.94 42.5341 114.028L42.8071 113.494C42.5692 113.372 42.2583 113.274 41.886 113.194L41.7598 113.781ZM42.3885 113.659L42.0398 114.623L42.6041 114.827L42.9527 113.863L42.3885 113.659ZM42.4334 114.446C42.1653 114.339 41.8755 114.252 41.5648 114.185L41.4385 114.772C41.7202 114.832 41.9773 114.91 42.2105 115.003L42.4334 114.446ZM41.5691 114.186C41.2576 114.114 40.9722 114.076 40.7155 114.076V114.676C40.9146 114.676 41.1532 114.706 41.4342 114.771L41.5691 114.186ZM40.7155 114.076C39.8861 114.076 39.2177 114.344 38.767 114.919C38.3273 115.48 38.1323 116.286 38.1323 117.288H38.7323C38.7323 116.348 38.9179 115.699 39.2392 115.289C39.5496 114.893 40.0228 114.676 40.7155 114.676V114.076ZM38.1323 117.288C38.1323 118.243 38.3229 119.023 38.746 119.587L39.226 119.227C38.9109 118.807 38.7323 118.174 38.7323 117.288H38.1323ZM38.7471 119.589C39.1881 120.169 39.8364 120.446 40.6403 120.446V119.846C39.9859 119.846 39.5313 119.629 39.2249 119.226L38.7471 119.589ZM40.6403 120.446C41.3086 120.446 41.9875 120.301 42.675 120.02L42.4475 119.465C41.8224 119.721 41.2207 119.846 40.6403 119.846V120.446ZM42.2612 119.742V120.747H42.8612V119.742H42.2612ZM42.4232 120.481C41.9768 120.712 41.3966 120.837 40.6677 120.837V121.437C41.4608 121.437 42.1431 121.302 42.6992 121.013L42.4232 120.481ZM51.1523 121H50.8523V121.3H51.1523V121ZM47.7002 114.978L47.4717 114.783L47.4705 114.785L47.7002 114.978ZM47.1602 121V121.3H47.4602V121H47.1602ZM46.0254 121H45.7254V121.3H46.0254V121ZM46.0254 110.363V110.063H45.7254V110.363H46.0254ZM47.1602 110.363H47.4602V110.063H47.1602V110.363ZM47.1055 114.547L46.8085 114.504L46.7596 114.847H47.1055V114.547ZM47.1738 114.547V114.847H47.3408L47.4288 114.705L47.1738 114.547ZM48.124 113.699L48.2582 113.968L48.2594 113.967L48.124 113.699ZM51.5967 114.041L51.3889 114.257L51.3911 114.26L51.5967 114.041ZM52.2871 121V121.3H52.5871V121H52.2871ZM51.4523 121V116.153H50.8523V121H51.4523ZM51.4523 116.153C51.4523 115.503 51.3051 114.961 50.9557 114.583L50.515 114.99C50.7216 115.213 50.8523 115.582 50.8523 116.153H51.4523ZM50.9557 114.583C50.5994 114.197 50.0679 114.035 49.4297 114.035V114.635C49.9764 114.635 50.3153 114.774 50.515 114.99L50.9557 114.583ZM49.4297 114.035C48.5901 114.035 47.9135 114.264 47.4717 114.783L47.9287 115.172C48.2161 114.834 48.6924 114.635 49.4297 114.635V114.035ZM47.4705 114.785C47.0418 115.295 46.8602 116.085 46.8602 117.083H47.4602C47.4602 116.131 47.6385 115.517 47.9299 115.171L47.4705 114.785ZM46.8602 117.083V121H47.4602V117.083H46.8602ZM47.1602 120.7H46.0254V121.3H47.1602V120.7ZM46.3254 121V110.363H45.7254V121H46.3254ZM46.0254 110.663H47.1602V110.063H46.0254V110.663ZM46.8602 110.363V113.583H47.4602V110.363H46.8602ZM46.8602 113.583C46.8602 113.962 46.8422 114.268 46.8085 114.504L47.4025 114.589C47.4416 114.315 47.4602 113.978 47.4602 113.583H46.8602ZM47.1055 114.847H47.1738V114.247H47.1055V114.847ZM47.4288 114.705C47.6204 114.396 47.8935 114.15 48.2582 113.968L47.9899 113.431C47.5343 113.659 47.1739 113.978 46.9189 114.389L47.4288 114.705ZM48.2594 113.967C48.6267 113.781 49.0509 113.685 49.5391 113.685V113.085C48.9699 113.085 48.4508 113.198 47.9887 113.431L48.2594 113.967ZM49.5391 113.685C50.4123 113.685 51.0099 113.894 51.3889 114.257L51.8044 113.825C51.272 113.313 50.4978 113.085 49.5391 113.085V113.685ZM51.3911 114.26C51.7665 114.613 51.9871 115.206 51.9871 116.112H52.5871C52.5871 115.123 52.3474 114.335 51.8022 113.822L51.3911 114.26ZM51.9871 116.112V121H52.5871V116.112H51.9871ZM52.2871 120.7H51.1523V121.3H52.2871V120.7ZM61.8489 120.111L62.0719 120.312L62.0726 120.311L61.8489 120.111ZM56.804 114.396L57.0271 114.597L57.0277 114.596L56.804 114.396ZM61.8421 114.417L61.6172 114.615L61.6179 114.616L61.8421 114.417ZM61.015 119.441L60.7776 119.258L60.7773 119.258L61.015 119.441ZM61.015 115.08L60.7773 115.263L60.7792 115.266L61.015 115.08ZM62.4718 117.247C62.4718 118.419 62.1773 119.294 61.6253 119.911L62.0726 120.311C62.7511 119.552 63.0718 118.518 63.0718 117.247H62.4718ZM61.626 119.911C61.0779 120.52 60.3154 120.837 59.2991 120.837V121.437C60.4521 121.437 61.3895 121.07 62.0719 120.312L61.626 119.911ZM59.2991 120.837C58.6782 120.837 58.1382 120.692 57.6703 120.408L57.3596 120.922C57.9307 121.267 58.5803 121.437 59.2991 121.437V120.837ZM57.6703 120.408C57.2043 120.126 56.8415 119.721 56.5822 119.182L56.0414 119.441C56.3473 120.078 56.7865 120.575 57.3596 120.922L57.6703 120.408ZM56.5822 119.182C56.3228 118.642 56.188 118 56.188 117.247H55.588C55.588 118.071 55.7358 118.805 56.0414 119.441L56.5822 119.182ZM56.188 117.247C56.188 116.074 56.4806 115.205 57.0271 114.597L56.581 114.196C55.9061 114.946 55.588 115.977 55.588 117.247H56.188ZM57.0277 114.596C57.571 113.988 58.3306 113.671 59.347 113.671V113.071C58.1941 113.071 57.2584 113.438 56.5803 114.197L57.0277 114.596ZM59.347 113.671C60.3213 113.671 61.0665 113.991 61.6172 114.615L62.0671 114.219C61.3873 113.448 60.469 113.071 59.347 113.071V113.671ZM61.6179 114.616C62.1766 115.245 62.4718 116.11 62.4718 117.247H63.0718C63.0718 116.005 62.7472 114.984 62.0663 114.218L61.6179 114.616ZM56.7638 117.247C56.7638 118.238 56.9609 119.042 57.3996 119.617L57.8764 119.252C57.5495 118.824 57.3638 118.171 57.3638 117.247H56.7638ZM57.3996 119.617C57.8496 120.206 58.5089 120.487 59.3265 120.487V119.887C58.6584 119.887 58.192 119.666 57.8764 119.252L57.3996 119.617ZM59.3265 120.487C60.1431 120.487 60.8022 120.209 61.2526 119.625L60.7773 119.258C60.4621 119.667 59.9956 119.887 59.3265 119.887V120.487ZM61.2523 119.625C61.6965 119.05 61.896 118.242 61.896 117.247H61.296C61.296 118.175 61.1081 118.83 60.7776 119.258L61.2523 119.625ZM61.896 117.247C61.896 116.261 61.6964 115.461 61.2507 114.895L60.7792 115.266C61.1082 115.684 61.296 116.329 61.296 117.247H61.896ZM61.2526 114.897C60.8014 114.312 60.1371 114.035 59.3128 114.035V114.635C59.9924 114.635 60.4629 114.855 60.7773 115.263L61.2526 114.897ZM59.3128 114.035C58.4983 114.035 57.841 114.306 57.3941 114.883L57.8682 115.25C58.1779 114.851 58.6416 114.635 59.3128 114.635V114.035ZM57.3941 114.883C56.9577 115.445 56.7638 116.25 56.7638 117.247H57.3638C57.3638 116.312 57.5481 115.663 57.8682 115.25L57.3941 114.883ZM71.9918 120.111L72.2148 120.312L72.2155 120.311L71.9918 120.111ZM66.9469 114.396L67.17 114.597L67.1706 114.596L66.9469 114.396ZM71.985 114.417L71.76 114.615L71.7608 114.616L71.985 114.417ZM71.1579 119.441L70.9205 119.258L70.9202 119.258L71.1579 119.441ZM71.1579 115.08L70.9202 115.263L70.9221 115.266L71.1579 115.08ZM72.6147 117.247C72.6147 118.419 72.3202 119.294 71.7682 119.911L72.2155 120.311C72.894 119.552 73.2147 118.518 73.2147 117.247H72.6147ZM71.7688 119.911C71.2208 120.52 70.4583 120.837 69.442 120.837V121.437C70.595 121.437 71.5324 121.07 72.2148 120.312L71.7688 119.911ZM69.442 120.837C68.8211 120.837 68.2811 120.692 67.8132 120.408L67.5025 120.922C68.0736 121.267 68.7232 121.437 69.442 121.437V120.837ZM67.8132 120.408C67.3472 120.126 66.9844 119.721 66.7251 119.182L66.1843 119.441C66.4902 120.078 66.9294 120.575 67.5025 120.922L67.8132 120.408ZM66.7251 119.182C66.4657 118.642 66.3309 118 66.3309 117.247H65.7309C65.7309 118.071 65.8786 118.805 66.1843 119.441L66.7251 119.182ZM66.3309 117.247C66.3309 116.074 66.6235 115.205 67.17 114.597L66.7239 114.196C66.0489 114.946 65.7309 115.977 65.7309 117.247H66.3309ZM67.1706 114.596C67.7139 113.988 68.4735 113.671 69.4899 113.671V113.071C68.337 113.071 67.4013 113.438 66.7232 114.197L67.1706 114.596ZM69.4899 113.671C70.4642 113.671 71.2094 113.991 71.76 114.615L72.21 114.219C71.5302 113.448 70.6119 113.071 69.4899 113.071V113.671ZM71.7608 114.616C72.3195 115.245 72.6147 116.11 72.6147 117.247H73.2147C73.2147 116.005 72.8901 114.984 72.2092 114.218L71.7608 114.616ZM66.9067 117.247C66.9067 118.238 67.1038 119.042 67.5425 119.617L68.0193 119.252C67.6924 118.824 67.5067 118.171 67.5067 117.247H66.9067ZM67.5425 119.617C67.9925 120.206 68.6518 120.487 69.4694 120.487V119.887C68.8013 119.887 68.3349 119.666 68.0193 119.252L67.5425 119.617ZM69.4694 120.487C70.286 120.487 70.9451 120.209 71.3955 119.625L70.9202 119.258C70.605 119.667 70.1384 119.887 69.4694 119.887V120.487ZM71.3952 119.625C71.8394 119.05 72.0389 118.242 72.0389 117.247H71.4389C71.4389 118.175 71.251 118.83 70.9205 119.258L71.3952 119.625ZM72.0389 117.247C72.0389 116.261 71.8393 115.461 71.3936 114.895L70.9221 115.266C71.2511 115.684 71.4389 116.329 71.4389 117.247H72.0389ZM71.3955 114.897C70.9443 114.312 70.28 114.035 69.4557 114.035V114.635C70.1353 114.635 70.6058 114.855 70.9202 115.263L71.3955 114.897ZM69.4557 114.035C68.6412 114.035 67.9839 114.306 67.537 114.883L68.0111 115.25C68.3208 114.851 68.7845 114.635 69.4557 114.635V114.035ZM67.537 114.883C67.1006 115.445 66.9067 116.25 66.9067 117.247H67.5067C67.5067 116.312 67.691 115.663 68.0111 115.25L67.537 114.883ZM77.7255 121V121.3H78.0255V121H77.7255ZM76.5908 121H76.2908V121.3H76.5908V121ZM76.5908 110.363V110.063H76.2908V110.363H76.5908ZM77.7255 110.363H78.0255V110.063H77.7255V110.363ZM77.7255 120.7H76.5908V121.3H77.7255V120.7ZM76.8908 121V110.363H76.2908V121H76.8908ZM76.5908 110.663H77.7255V110.063H76.5908V110.663ZM77.4255 110.363V121H78.0255V110.363H77.4255ZM86.4055 121L86.1254 121.107L86.1991 121.3H86.4055V121ZM83.0149 112.141L83.2951 112.033L83.2213 111.841H83.0149V112.141ZM82.9602 112.141V111.841H82.6317L82.6615 112.168L82.9602 112.141ZM83.0559 121V121.3H83.3559V121H83.0559ZM81.9827 121H81.6827V121.3H81.9827V121ZM81.9827 111.006V110.706H81.6827V111.006H81.9827ZM83.7327 111.006L84.0128 110.898L83.9389 110.706H83.7327V111.006ZM86.8977 119.25L86.6177 119.358L86.6916 119.55H86.8977V119.25ZM86.9524 119.25V119.55H87.158L87.2322 119.358L86.9524 119.25ZM90.1448 111.006V110.706H89.9393L89.865 110.898L90.1448 111.006ZM91.8811 111.006H92.1811V110.706H91.8811V111.006ZM91.8811 121V121.3H92.1811V121H91.8811ZM90.719 121H90.419V121.3H90.719V121ZM90.8147 112.154L91.1139 112.176L91.1376 111.854H90.8147V112.154ZM90.76 112.154V111.854H90.5543L90.4802 112.046L90.76 112.154ZM87.3421 121V121.3H87.5478L87.6219 121.108L87.3421 121ZM86.6857 120.893L83.2951 112.033L82.7347 112.248L86.1254 121.107L86.6857 120.893ZM83.0149 111.841H82.9602V112.441H83.0149V111.841ZM82.6615 112.168C82.7242 112.858 82.7559 113.682 82.7559 114.643H83.3559C83.3559 113.67 83.3239 112.827 83.259 112.113L82.6615 112.168ZM82.7559 114.643V121H83.3559V114.643H82.7559ZM83.0559 120.7H81.9827V121.3H83.0559V120.7ZM82.2827 121V111.006H81.6827V121H82.2827ZM81.9827 111.306H83.7327V110.706H81.9827V111.306ZM83.4526 111.113L86.6177 119.358L87.1778 119.142L84.0128 110.898L83.4526 111.113ZM86.8977 119.55H86.9524V118.95H86.8977V119.55ZM87.2322 119.358L90.4246 111.114L89.865 110.898L86.6727 119.142L87.2322 119.358ZM90.1448 111.306H91.8811V110.706H90.1448V111.306ZM91.5811 111.006V121H92.1811V111.006H91.5811ZM91.8811 120.7H90.719V121.3H91.8811V120.7ZM91.019 121V114.561H90.419V121H91.019ZM91.019 114.561C91.019 113.831 91.0506 113.036 91.1139 112.176L90.5155 112.132C90.4513 113.004 90.419 113.814 90.419 114.561H91.019ZM90.8147 111.854H90.76V112.454H90.8147V111.854ZM90.4802 112.046L87.0622 120.892L87.6219 121.108L91.0399 112.262L90.4802 112.046ZM87.3421 120.7H86.4055V121.3H87.3421V120.7ZM101.224 115.682L101.027 115.908L101.029 115.909L101.224 115.682ZM101.142 120.255L100.943 120.031L100.942 120.031L101.142 120.255ZM95.8443 120.597H95.5443V120.765L95.6885 120.853L95.8443 120.597ZM95.8443 119.503L96.0066 119.251L95.5443 118.953V119.503H95.8443ZM97.0338 119.988L96.961 120.279L96.9637 120.28L97.0338 119.988ZM100.301 119.592L100.107 119.363L100.106 119.364L100.301 119.592ZM96.6715 116.058L96.5099 116.31L96.6092 116.374L96.7253 116.353L96.6715 116.058ZM96.0836 115.682L95.7846 115.658L95.7701 115.837L95.922 115.934L96.0836 115.682ZM96.4596 111.006V110.706H96.1827L96.1605 110.982L96.4596 111.006ZM101.429 111.006H101.729V110.706H101.429V111.006ZM101.429 112.052V112.352H101.729V112.052H101.429ZM97.4303 112.052V111.752H97.1545L97.1313 112.027L97.4303 112.052ZM97.1773 115.053L96.8784 115.028L96.8449 115.425L97.2362 115.347L97.1773 115.053ZM98.7428 115.196C99.7466 115.196 100.496 115.445 101.027 115.908L101.421 115.455C100.75 114.87 99.8444 114.596 98.7428 114.596V115.196ZM101.029 115.909C101.559 116.364 101.833 116.989 101.833 117.821H102.433C102.433 116.84 102.102 116.039 101.419 115.454L101.029 115.909ZM101.833 117.821C101.833 118.786 101.529 119.51 100.943 120.031L101.342 120.479C102.077 119.824 102.433 118.925 102.433 117.821H101.833ZM100.942 120.031C100.356 120.556 99.5288 120.837 98.4215 120.837V121.437C99.6292 121.437 100.616 121.129 101.342 120.478L100.942 120.031ZM98.4215 120.837C97.3199 120.837 96.5248 120.659 96.0001 120.34L95.6885 120.853C96.3487 121.254 97.2718 121.437 98.4215 121.437V120.837ZM96.1443 120.597V119.503H95.5443V120.597H96.1443ZM95.6821 119.755C96.0353 119.982 96.464 120.155 96.961 120.279L97.1066 119.697C96.6557 119.585 96.2914 119.434 96.0066 119.251L95.6821 119.755ZM96.9637 120.28C97.4592 120.399 97.9499 120.459 98.4352 120.459V119.859C97.9998 119.859 97.5563 119.805 97.1039 119.697L96.9637 120.28ZM98.4352 120.459C99.2817 120.459 99.9825 120.259 100.496 119.82L100.106 119.364C99.7361 119.681 99.1927 119.859 98.4352 119.859V120.459ZM100.495 119.821C101.024 119.373 101.271 118.733 101.271 117.951H100.671C100.671 118.6 100.472 119.054 100.107 119.363L100.495 119.821ZM101.271 117.951C101.271 117.19 101.035 116.57 100.52 116.15C100.017 115.739 99.2954 115.559 98.4078 115.559V116.159C99.2292 116.159 99.7895 116.328 100.141 116.615C100.48 116.892 100.671 117.318 100.671 117.951H101.271ZM98.4078 115.559C97.9486 115.559 97.3495 115.629 96.6177 115.762L96.7253 116.353C97.4426 116.222 98.0011 116.159 98.4078 116.159V115.559ZM96.8331 115.805L96.2452 115.429L95.922 115.934L96.5099 116.31L96.8331 115.805ZM96.3826 115.706L96.7586 111.03L96.1605 110.982L95.7846 115.658L96.3826 115.706ZM96.4596 111.306H101.429V110.706H96.4596V111.306ZM101.129 111.006V112.052H101.729V111.006H101.129ZM101.429 111.752H97.4303V112.352H101.429V111.752ZM97.1313 112.027L96.8784 115.028L97.4763 115.078L97.7292 112.077L97.1313 112.027ZM97.2362 115.347C97.7415 115.246 98.2436 115.196 98.7428 115.196V114.596C98.2029 114.596 97.6614 114.65 97.1185 114.759L97.2362 115.347Z" fill="black"/>
<path d="M39.5203 33.7166C39.4287 33.7103 27.1425 29.6699 29.707 38.4333C30.7221 41.9015 37.3007 45.0719 40.6847 43.7223C41.9912 43.2016 42.6728 43.634 42.2794 44.9236C41.0687 48.8914 41.5525 53.0979 40.4501 57.071C40.306 57.5885 40.3239 57.9809 41.0466 58.1302C48.8938 59.7544 49.4744 60.6464 49.8962 58.8234C50.8976 54.5022 52.0705 50.1831 56.6368 48.9955C58.8774 48.4128 60.8886 49.2795 62.9104 50.2788C71.7769 54.659 65.0899 59.9932 68.2236 61.1524C70.0718 61.8361 71.9084 62.5177 73.8912 62.7144C75.7436 62.8985 76.1349 63.3635 75.8572 65.1296C73.3474 81.1101 72.2387 80.0898 70.8481 88.0033C70.2569 91.3704 67.442 97.1611 64.3694 98.456C61.1295 99.8203 57.7824 100.985 54.1943 100.508C38.36 98.4045 37.6773 97.1958 35.6272 98.4834C35.1107 98.8074 31.5563 97.4609 27.8084 96.9581C15.662 95.3277 4.47924 93.7435 1.69695 81.6813C1.36665 80.2518 1.38559 78.7455 1.16258 77.2865C0.610334 73.6732 1.68853 70.0683 1.12892 66.7538C1.30143 63.9999 1.13944 61.5426 1.39295 59.0717C1.72745 55.7992 2.86035 52.6856 2.98027 49.371C3.25797 41.6743 5.35126 34.3846 8.3839 27.3599C14.851 12.3808 36.4466 19.9261 42.9852 20.3153C45.9821 20.4942 44.1234 21.5114 43.1283 31.1994C42.8653 33.7534 42.7002 33.9428 39.5203 33.7166V33.7166ZM36.901 96.4637C39.3804 97.179 41.9312 97.5083 44.4894 97.7144C45.7212 97.8144 55.1568 99.6142 59.801 98.6012C64.7428 97.524 67.7239 94.3389 68.9041 89.7C70.6114 82.9909 72.6331 76.3408 73.5809 69.4519C74.5728 62.2337 74.3919 66.0626 66.6131 62.0749C65.4108 61.4585 65.0657 60.7789 65.7263 59.4735C66.9318 57.0931 66.4595 55.0965 64.4693 53.2946C59.6884 48.9618 55.5407 49.8612 53.1624 53.6071C50.1876 58.2901 52.2735 63.4907 46.7531 61.0661C44.9312 60.2656 42.9852 59.99 41.0392 59.686C39.1815 59.3957 40.2072 60.0079 38.4305 71.4568C38.2874 72.3772 38.8039 72.8737 39.617 72.8506C42.4161 72.7727 44.7913 74.116 47.2612 75.0817C54.4994 77.9123 49.6543 88.3904 40.1114 86.6347C36.8968 86.0436 36.9115 86.0173 36.7506 88.1789C36.5802 90.4668 36.5328 92.78 35.8765 94.9974C35.5725 96.0314 36.192 96.2586 36.901 96.4637V96.4637ZM39.9547 74.2149C38.4599 73.6711 38.1307 74.3674 38.0613 75.7065C37.6521 83.6252 36.6159 84.7539 38.2727 84.9601C39.3278 85.0916 40.3344 84.9433 40.6374 83.7567C41.1192 81.8665 41.6924 79.9688 41.4063 77.9713C40.9288 74.6283 43.7321 74.2149 39.9547 74.2149ZM42.8148 85.3293C46.2556 84.9075 45.7086 84.4689 46.2535 78.1227C46.3303 76.2461 45.514 75.3457 44.0634 75.1606C43.1514 75.0438 43.5333 75.0449 42.3793 82.2294C42.0238 84.452 40.9645 85.5565 42.8148 85.3293ZM46.8047 83.6463C49.5922 81.8149 50.6757 78.2016 47.6357 76.9309C47.8008 79.3861 46.9099 81.432 46.8047 83.6463ZM33.0006 96.1587C34.7919 96.9013 34.7541 94.3757 35.6892 86.1204C35.6934 86.0751 37.5848 65.118 38.3358 61.2102C38.6146 59.7586 37.7036 59.4946 36.5686 59.2631C35.3453 59.0138 35.238 59.7039 35.0497 60.6022C34.3859 63.7727 34.3943 67.0199 33.8789 70.2082C30.4129 91.6166 33.7884 72.4235 30.8641 94.5324C30.639 96.2344 32.1674 95.8126 33.0006 96.1587V96.1587ZM26.3483 94.8932C27.2288 95.0542 28.2722 95.7653 29.0275 94.5745C29.4493 93.9097 29.6755 93.1523 29.7176 92.4023C30.1078 85.5471 33.659 63.7453 33.4297 61.3228C33.4476 58.6688 33.2804 58.47 31.0892 58.1544C30.2909 58.0398 29.8585 58.2302 29.7891 59.1306C27.0752 94.2652 24.943 94.6355 26.3483 94.8932V94.8932ZM22.6603 94.6092C24.6369 94.7933 24.7063 94.7302 24.8946 93.0808C27.2109 72.7948 27.7473 71.3653 27.4391 68.1149C25.7771 68.9933 25.0387 70.2334 24.8693 71.8534C23.3241 86.6432 25.1008 75.3194 21.7494 92.6979C21.5906 93.5163 21.1761 94.4704 22.6603 94.6092V94.6092ZM19.8339 94.0759C20.4177 93.896 20.5397 93.45 20.5723 92.9346C20.8563 88.3946 22.3858 84.0576 22.7466 79.5302C23.5734 69.1647 24.1404 70.0567 21.4917 70.0504C17.9089 69.596 21.1593 72.7096 16.5488 90.9539C15.9576 93.2922 17.4282 94.8164 19.8339 94.0759ZM13.3436 92.6948C14.4292 92.8578 15.1298 92.8115 15.3496 91.5208C17.1294 81.0449 16.2227 90.1376 18.0488 71.5757C17.9973 70.3502 18.4454 69.0206 16.9001 68.2811C16.1396 67.9172 15.7535 68.0392 15.7283 68.9007C15.5053 76.4218 13.2111 83.6252 12.3117 91.0454C12.1865 92.0846 12.2055 92.5233 13.3436 92.6948V92.6948ZM9.49892 90.7929C10.879 91.4809 11.0684 91.4482 11.365 89.8567C16.2585 63.5581 13.4415 69.6118 14.6396 58.9434C14.7511 57.9525 14.0274 57.7137 13.331 57.599C11.5596 57.3066 12.8682 64.5184 8.32079 88.5692C8.11672 89.6463 8.51223 90.3006 9.49892 90.7929V90.7929ZM4.03743 85.302C4.98941 86.4675 5.3702 88.0758 7.05956 89.0815C7.84428 83.7546 9.08657 78.7255 9.47893 73.5301C10.4646 60.4644 12.1013 56.7596 9.01189 56.8006C8.12724 56.8122 8.16405 57.4402 8.1083 58.0587C7.38144 66.1152 5.73205 74.0382 4.59705 82.0358C4.47082 82.9278 4.74537 83.925 4.00798 84.6982C3.84494 84.8675 3.89017 85.1221 4.03743 85.302V85.302ZM3.13701 56.5166C2.2797 57.9356 2.12718 59.4904 2.1398 61.0987C2.26498 77.1045 1.24463 77.0256 3.15804 82.4471C5.812 65.5462 6.47785 62.3221 6.51362 58.1145C6.52519 56.7238 5.00098 55.4847 3.69136 55.8055C3.27481 55.9076 3.2969 56.2505 3.13701 56.5166V56.5166ZM41.9596 22.294C38.8754 21.8248 35.9554 20.6783 32.8775 20.1565C30.578 19.7673 28.288 19.9945 26.0853 19.9104C23.6491 19.9682 21.2866 19.6137 18.9671 20.2617C15.0898 21.3452 11.9951 23.4889 10.2216 27.158C4.0164 39.9965 4.74326 47.0284 3.57565 53.1674C2.995 56.22 5.5122 53.6113 15.0887 56.3778C16.9117 56.9048 17.019 57.0268 16.2332 58.6751C15.3096 60.6117 15.3286 62.767 15.884 64.6194C17.0916 68.6461 26.9153 71.1917 27.5233 63.0426C27.9598 57.1993 26.4882 56.3494 27.3645 55.6078C27.9135 55.1428 28.6562 55.3469 29.2253 55.6488C31.8077 57.0152 34.6352 57.2845 37.4585 57.639C38.9943 57.8326 38.5367 58.106 40.2776 47.0011C40.568 45.1529 38.1854 45.6852 34.1492 44.4187C26.7565 42.0992 25.491 31.7159 33.0237 31.0932C35.2432 30.9101 37.3775 31.3919 39.5213 31.8158C41.4905 32.2061 41.502 32.2218 41.8355 30.2053C43.0157 23.0819 43.3397 22.5033 41.9596 22.294V22.294Z" fill="#1E251F" fill-opacity="0.92944" stroke="black" stroke-width="2"/>
<path d="M102.483 37.1311C95.9149 52.0355 97.1709 48.9976 94.4233 53.4177C93.8606 54.3234 93.1484 54.6916 92.0818 54.1688C88.4001 52.3637 75.7689 51.5369 79.0876 44.5091C80.0638 42.4421 80.5329 40.2657 80.4625 37.9915C80.4025 36.0634 79.2622 34.8842 77.1984 34.4603C71.5202 33.2969 73.2169 47.6648 65.2456 44.4502C61.5871 42.9755 58.1621 41.0336 54.6235 39.3211C51.229 37.6781 50.8198 36.2475 52.5786 32.7499C53.9839 29.955 54.9317 27.0118 55.9857 24.0948C56.5611 22.5001 55.3851 22.5748 51.8423 21.2042C45.6087 18.7932 47.2738 10.4874 50.4643 10.1119C52.3072 9.89518 54.148 9.77421 55.9636 10.5084C59.6526 11.999 60.8476 11.8749 62.923 6.84255C65.0594 1.65877 65.5381 0.50588 67.381 1.17068C75.9088 4.24645 83.9243 8.38569 91.5758 13.1824C104.529 21.3031 103.421 35.002 102.483 37.1311V37.1311ZM101.258 32.7268C100.468 20.1039 91.6852 14.0723 80.1364 8.65077C65.8389 1.93857 67.0581 2.40878 65.6338 5.17844C61.4745 13.2644 60.733 14.066 57.2785 12.8868C54.8423 12.0547 51.9948 10.1298 50.0141 12.4902C48.0722 14.8055 49.3356 18.6596 53.0225 19.842C56.8136 21.0569 58.4735 21.2463 57.6246 24.1159C54.5625 34.4719 50.8146 35.5038 55.0727 37.7506C66.2081 43.6276 67.3726 44.3492 68.8947 42.6083C69.6931 41.6953 70.3147 40.6791 70.6429 39.4863C71.9052 34.8905 74.6865 30.5998 78.6364 33.2948C81.729 35.4038 83.4415 38.1546 80.5172 44.6154C79.5052 46.8507 79.703 47.5428 81.7595 48.7725C85.0193 50.7238 88.7725 51.1288 92.3353 52.1281C93.1421 52.3542 93.4882 51.7042 93.8269 51.1203C95.2259 48.7062 96.5881 46.2784 97.6253 43.675C100.233 37.1342 101.728 35.5869 101.258 32.7268Z" fill="black" stroke="black" stroke-width="2"/>
<path d="M6.42525 52.8125L11.8334 28.8817" stroke="#E10E60" stroke-width="2" stroke-linecap="round" stroke-linejoin="round"/>
<path d="M10.413 53.3534L17.4435 23.0681" stroke="#E10E60" stroke-width="2" stroke-linecap="round" stroke-linejoin="round"/>
<path d="M14.9425 54.2322L22.3787 22.2564" stroke="#E10E60" stroke-width="2" stroke-linecap="round" stroke-linejoin="round"/>
<path d="M18.9987 55.787L27.1108 22.6626" stroke="#E10E60" stroke-width="2" stroke-linecap="round" stroke-linejoin="round"/>
<path d="M19.9454 64.1692L25.8943 41.4554" stroke="#E10E60" stroke-width="2" stroke-linecap="round" stroke-linejoin="round"/>
<path d="M30.7611 29.287L32.3835 22.9325" stroke="#E10E60" stroke-width="2" stroke-linecap="round" stroke-linejoin="round"/>
<path d="M35.8986 28.3414L37.3857 23.7444" stroke="#E10E60" stroke-width="2" stroke-linecap="round" stroke-linejoin="round"/>
<path d="M23.4598 64.8456L25.0823 59.7079" stroke="#E10E60" stroke-width="2" stroke-linecap="round" stroke-linejoin="round"/>
<path d="M28.4626 52.5422L30.6259 44.8356" stroke="#E10E60" stroke-width="2" stroke-linecap="round" stroke-linejoin="round"/>
<path d="M33.8705 53.8942L35.2225 47.8101" stroke="#E10E60" stroke-width="2" stroke-linecap="round" stroke-linejoin="round"/>
<path d="M43.243 63.4287L42.287 70.1209" stroke="#0E6DEF" stroke-width="2" stroke-linecap="round" stroke-linejoin="round"/>
<path d="M47.5451 64.0977L46.3023 71.5547" stroke="#0E6DEF" stroke-width="2" stroke-linecap="round" stroke-linejoin="round"/>
<path d="M54.2373 57.1187L51.2737 74.2311" stroke="#0E6DEF" stroke-width="2" stroke-linecap="round" stroke-linejoin="round"/>
<path d="M58.9219 53.6771L51.6561 96.1246" stroke="#0E6DEF" stroke-width="2" stroke-linecap="round" stroke-linejoin="round"/>
<path d="M62.7189 59.3197L56.8927 94.9582" stroke="#0E6DEF" stroke-width="2" stroke-linecap="round" stroke-linejoin="round"/>
<path d="M66.5563 65.0822L61.8498 92.9619" stroke="#0E6DEF" stroke-width="2" stroke-linecap="round" stroke-linejoin="round"/>
<path d="M70.3158 67.0294L66.2762 89.944" stroke="#0E6DEF" stroke-width="2" stroke-linecap="round" stroke-linejoin="round"/>
<path d="M48.2558 88.8984L47.1797 94.9346" stroke="#0E6DEF" stroke-width="2" stroke-linecap="round" stroke-linejoin="round"/>
<path d="M43.0481 89.6737L42.4916 94.8848" stroke="#0E6DEF" stroke-width="2" stroke-linecap="round" stroke-linejoin="round"/>
<path d="M39.5602 89.1604L38.5783 94.4138" stroke="#0E6DEF" stroke-width="2" stroke-linecap="round" stroke-linejoin="round"/>
<path d="M52.8806 16.6852L54.2904 13.7501" stroke="#45EC3C" stroke-width="2" stroke-linecap="round" stroke-linejoin="round"/>
<path d="M55.1957 18.5818L57.0394 14.5099" stroke="#45EC3C" stroke-width="2" stroke-linecap="round" stroke-linejoin="round"/>
<path d="M59.0633 20.2028L61.2146 14.9458" stroke="#45EC3C" stroke-width="2" stroke-linecap="round" stroke-linejoin="round"/>
<path d="M57.0736 35.651L70.0572 7.3222" stroke="#45EC3C" stroke-width="2" stroke-linecap="round" stroke-linejoin="round"/>
<path d="M61.0491 37.7475L74.6534 8.93161" stroke="#45EC3C" stroke-width="2" stroke-linecap="round" stroke-linejoin="round"/>
<path d="M65.0615 38.9898L78.8636 11.5519" stroke="#45EC3C" stroke-width="2" stroke-linecap="round" stroke-linejoin="round"/>
<path d="M74.7654 30.2485L82.7602 13.4737" stroke="#45EC3C" stroke-width="2" stroke-linecap="round" stroke-linejoin="round"/>
<path d="M80.9863 29.8729L87.5049 16.5874" stroke="#45EC3C" stroke-width="2" stroke-linecap="round" stroke-linejoin="round"/>
<path d="M84.4134 33.786L91.2694 19.6158" stroke="#45EC3C" stroke-width="2" stroke-linecap="round" stroke-linejoin="round"/>
<path d="M84.7932 41.8907L94.5767 22.3253" stroke="#45EC3C" stroke-width="2" stroke-linecap="round" stroke-linejoin="round"/>
<path d="M85.9145 47.6732L96.9753 26.2796" stroke="#45EC3C" stroke-width="2" stroke-linecap="round" stroke-linejoin="round"/>
<path d="M90.0527 48.9635L98.0774 32.4896" stroke="#45EC3C" stroke-width="2" stroke-linecap="round" stroke-linejoin="round"/>
</svg>
